<svg version="1.1" xmlns="http://www.w3.org/2000/svg" viewBox="0 0 1437.5651041666665 1544.4345388104834" width="2875.130208333333" height="3088.869077620967">
  <!-- svg-source:excalidraw -->
  
  <defs>
    <style>
      @font-face {
        font-family: "Virgil";
        src: url("https://excalidraw.com/FG_Virgil.woff2");
      }
      @font-face {
        font-family: "Cascadia";
        src: url("https://excalidraw.com/Cascadia.woff2");
      }
    </style>
  </defs>
  <rect x="0" y="0" width="1437.5651041666665" height="1544.4345388104834" fill="#ffffff"></rect><g transform="translate(489.53024193548345 254.86405829973114) rotate(0 194.81476814516128 64.78074596774195)"><path d="M-0.3926180445564369 -1.0238166789285523 C128.14926248212072 -0.15299339816808788, 254.70623467100552 -0.06145203508363595, 389.074717148948 0.6269840927167394 M-0.3785229570344976 -0.2988520001383131 C132.5337217347853 -0.15561874252898683, 264.78569886555806 -0.8036992074701136, 389.89423413394786 0.3409932805585882 M389.75043496735873 -0.09996078722178936 C387.924102917333 39.16253388726441, 387.15874071421183 76.3457000247633, 391.6238429869014 128.74004249364862 M389.5228223778728 0.8127321368083358 C389.8415095789741 38.00195209820138, 390.7650055570911 75.73979323726776, 389.3623715915206 129.25431606729308 M389.739829687359 130.7063193662907 C259.90098369954796 127.27690361546385, 130.38567087142624 127.46578012169839, 0.39561923736955407 130.64881364638936 M389.6264509288788 130.10627884484907 C254.16572391394152 130.8266344032831, 118.6564624145663 130.8673338871708, -0.19110231758205862 129.30564575249687 M0.6054838430136442 128.87207804710397 C1.365710829169867 99.4823388475695, -1.6752975836681152 74.67892052511021, 1.5152344834059477 1.8837484885007143 M-0.724196276627481 129.88302285034933 C1.554727934902457 100.59011769562167, 1.9023934534247195 72.0979699490361, 0.6749709332361817 -0.4780817562714219" stroke="#000000" stroke-width="1" fill="none"></path></g><g transform="translate(519.3757560483867 294.1080099126343) rotate(0 161 22.5)"><text x="161" y="32" font-family="Virgil, Segoe UI Emoji" font-size="36px" fill="#000000" text-anchor="middle" style="white-space: pre;" direction="ltr">initialize web page</text></g><g><g transform="translate(669.2580120050303 385.42555023521504) rotate(0 -2.2588725606758544 52.30751130568017)"><path d="M0.07306946106255063 -0.8640450496226548 C-0.5041558961954061 16.30677416561533, -3.867125830991241 86.44920929215793, -4.590814582414237 104.08552876679533 M-1.347707801219076 1.2967273539863529 C-1.4721781382162218 19.165129578824974, -2.391887653047266 88.54129682576229, -2.4661199720085234 105.47906766098299" stroke="#000000" stroke-width="1" fill="none"></path></g><g transform="translate(669.2580120050303 385.42555023521504) rotate(0 -2.2588725606758544 52.30751130568017)"><path d="M-13.900526523103373 75.32847569863947 C-10.60794682876831 81.68688231607858, -7.101428446923148 87.15923707616919, -4.399013589087185 106.77127765689352 M-12.607575962764578 77.34497381262184 C-9.541980841102774 85.87451583440813, -5.405852848879137 95.02591095963527, -1.6750785018757552 105.84187243983456" stroke="#000000" stroke-width="1" fill="none"></path></g><g transform="translate(669.2580120050303 385.42555023521504) rotate(0 -2.2588725606758544 52.30751130568017)"><path d="M6.619769786403317 75.52197442185421 C5.6825389702237725 81.85300669246318, 4.960957069498558 87.28549204745546, -4.399013589087185 106.77127765689352 M7.9127203467421126 77.53847253583659 C4.547466032972777 86.09543801875438, 2.251802026750574 95.18618374979584, -1.6750785018757552 105.84187243983456" stroke="#000000" stroke-width="1" fill="none"></path></g></g><g transform="translate(515.2253864247306 497.86809055779565) rotate(0 158.64289314516134 59.006426411290306)"><path d="M-0.19337603701555478 1.3414625245704632 C68.70254809919359 0.5493795694969891, 135.25078413289546 0.6789287369722469, 316.7472211377751 1.1271466598734021 M-0.5152531171031366 0.6600914414981661 C93.35439534373967 0.1995281006167002, 187.13970759296632 0.46011900541661394, 317.9792973459235 -0.5149181583507922 M318.66650841258956 0.8375639449805021 C316.0363919108305 34.44713893848963, 317.8213912218008 68.23464476390794, 315.80416015409423 118.43763093944756 M317.9728977937673 -0.4406172251328826 C318.7706943036464 38.33973256134859, 317.91181977404625 75.75189635082079, 316.82770120692 117.7877918911737 M318.57628363842065 118.48942886672579 C218.6781843283947 116.82388946334972, 122.87842488554362 116.94078910607524, -0.16698729458276554 116.64382416306417 M317.50418020451036 118.23606725727407 C248.38908212329503 116.44016318807259, 178.22799371182262 116.30132660438416, 0.26808726698073987 117.51803282447531 M1.6895119715481997 116.44523142572609 C2.365330081673223 93.98282014078356, 2.1063344890790763 72.2729246486877, 1.5193977523595095 -1.1510958541184664 M0.9799125855788589 117.37327129967628 C0.3238461221365383 86.66430260518372, -0.21295160997825358 52.73051949571314, 0.6700870161876082 -0.22964160796254873" stroke="#000000" stroke-width="1" fill="none"></path></g><g transform="translate(570.7975050403221 532.3640582997311) rotate(0 108 22.5)"><text x="108" y="32" font-family="Virgil, Segoe UI Emoji" font-size="36px" fill="#000000" text-anchor="middle" style="white-space: pre;" direction="ltr">display word</text></g><g transform="translate(198.58711357526818 1355.128759240591) rotate(0 115.5 22.5)"><text x="115.5" y="32" font-family="Virgil, Segoe UI Emoji" font-size="36px" fill="#000000" text-anchor="middle" style="white-space: pre;" direction="ltr">reverse word</text></g><g transform="translate(1065.1318884408597 1056.6127142137093) rotate(0 124.5 45)"><text x="124.5" y="32" font-family="Virgil, Segoe UI Emoji" font-size="36px" fill="#000000" text-anchor="middle" style="white-space: pre;" direction="ltr">repeat word </text><text x="124.5" y="77" font-family="Virgil, Segoe UI Emoji" font-size="36px" fill="#000000" text-anchor="middle" style="white-space: pre;" direction="ltr">or characters</text></g><g transform="translate(97.40221774193515 1074.0985593077958) rotate(0 93 22.5)"><text x="93" y="32" font-family="Virgil, Segoe UI Emoji" font-size="36px" fill="#000000" text-anchor="middle" style="white-space: pre;" direction="ltr">clear word</text></g><g transform="translate(784.86097110215 1353.5763398857525) rotate(0 122 45)"><text x="122" y="32" font-family="Virgil, Segoe UI Emoji" font-size="36px" fill="#000000" text-anchor="middle" style="white-space: pre;" direction="ltr">remove vowels</text><text x="122" y="77" font-family="Virgil, Segoe UI Emoji" font-size="36px" fill="#000000" text-anchor="middle" style="white-space: pre;" direction="ltr">or consonants</text></g><g transform="translate(169.61714573395506 13.942961437280246) rotate(0 151.80401533530699 62.019664230006526)"><path d="M0.31640250552726396 0.18252026392622558 C114.13339834401381 -0.09092838606216436, 231.70981107804678 1.3176106029222407, 304.09047151639294 0.39216060451352924 M-0.4395445113426312 0.4175362474582007 C98.62585078949125 1.4787767954536568, 196.45619752859886 1.6770027736622641, 304.2915003211643 -0.5725187549850516 M302.93839086155685 -0.18322299607098103 C302.4173829073222 46.82003650187501, 302.9553824776919 95.91071169501143, 301.96980900625977 125.44136841817713 M303.8859364095265 0.787923046387732 C302.4355937087802 49.52317229740936, 301.79932488444126 97.00531733853109, 303.5755491259629 124.12268660719461 M304.6806814630152 125.43839468841226 C218.26353846958577 121.78177265463857, 134.55297849538715 120.99177240622902, 1.378319571984633 125.31668566261644 M303.6717567958899 123.76815281227458 C201.76309328764273 122.87124232522788, 100.13941623017769 123.71931484342713, -0.27808647706355316 124.66371632423385 M1.602311508730054 125.21816636844493 C-0.05345184238091438 87.90621125894182, 0.998292082236853 53.416413055566636, -1.875818533822894 0.3635538350790739 M0.8090052371844649 123.53113259131975 C0.6584135144620253 80.35881703392052, 0.6229690462022139 35.340440723652634, -0.3922683531418443 0.8143254900351167" stroke="#000000" stroke-width="1" fill="none"></path></g><g transform="translate(222.11931683949052 50.36936684518096) rotate(0 99.3018442297712 25.59325882210598)"><text x="99.30184422977119" y="36.18651764421197" font-family="Virgil, Segoe UI Emoji" font-size="40.949214115369564px" fill="#000000" text-anchor="middle" style="white-space: pre;" direction="ltr">must have</text></g><g transform="translate(511.5990688509647 16.0064179298127) rotate(0 168.30366938218344 65.09085528865924)"><path d="M101.59400129495374 5.656543396521506 C117.18623317308348 1.9445479010942925, 139.3394423017549 1.0384596997639441, 158.27332751149353 0.44078866247062365 C177.20721272123217 -0.15688237482269685, 196.76005127656032 -0.0952538982859692, 215.19731255338553 2.0705171727615834 C233.63457383021074 4.2362882438091365, 253.4333576697428 8.880026139225563, 268.8968951724448 13.435415088755938 C284.36043267514674 17.990804038286313, 297.52800153436345 23.1845965911254, 307.97853756959734 29.402850869943826 C318.4290736048312 35.621105148762254, 327.1344674409718 43.452601575506876, 331.6001113838481 50.744940761666506 C336.06575532672446 58.037279947826136, 336.96973862595956 66.05803504481592, 334.7724012268553 73.15688598690159 C332.5750638277511 80.25573692898725, 326.85590450789914 86.8475833008926, 318.41608698922266 93.33804641418048 C309.9762694705462 99.82850952746837, 297.92138617627666 106.91268122633367, 284.1334961147963 112.09966466662891 C270.3456060533159 117.28664810692415, 253.17349613838778 121.36176959598012, 235.68874662034062 124.45994705595187 C218.20399710229347 127.55812451592362, 198.45992742163693 130.0537166308269, 179.22499900651337 130.68872942645942 C159.9900705913898 131.32374222209194, 138.5368615708997 130.5913744657015, 120.27917612959922 128.27002382974695 C102.02149068829873 125.9486731937924, 84.98867186958795 121.2163845161021, 69.67888635871041 116.76062561073212 C54.369100847832875 112.30486670536214, 39.09539307816017 107.59156450113925, 28.420463064334 101.5354703975271 C17.74553305050783 95.47937629391497, 10.083749009906711 87.80407360664677, 5.629306275753379 80.42406098905926 C1.1748635416000468 73.04404837147175, -0.1418489665497873 64.60276580381816, 1.6938066594140082 57.255394692002085 C3.5294622853778037 49.90802358018602, 8.290431653392268 42.895074207076696, 16.643240031536152 36.33983431816284 C24.996048409680036 29.78459442924899, 36.999611906118595 23.33344783206281, 51.81065692827731 17.923955358518974 C66.62170195043602 12.514462884975138, 95.71386486293238 5.802812538385576, 105.50951016448843 3.882879476899838 C115.30515546604448 1.9629464154140994, 109.72729380277268 5.277677644408022, 110.58452873761357 6.404356989604544 M159.16648670472847 0.6410337873986833 C177.32890706698532 -1.1573918715735907, 197.51401264248017 0.09884321573892874, 215.70280166328408 2.0148965356927846 C233.891590684088 3.9309498556466407, 252.95623318235153 7.710483984862633, 268.2992208295519 12.137353707121818 C283.64220847675233 16.564223429381002, 297.32010866886935 22.09692896313645, 307.76072754648646 28.576114869247895 C318.2013464241036 35.05530077535934, 326.4018200969035 43.51578174362241, 330.94293409525477 51.01246914379049 C335.484048093606 58.50915654395857, 337.0091198590796 66.45438740271219, 335.0074115365941 73.55623927025638 C333.00570321410856 80.65809113780058, 327.56057392226455 86.99269434848627, 318.93268416034164 93.6235803490557 C310.3047943984187 100.25446634962513, 296.9075382159424 108.2054526509482, 283.2400729650566 113.341555273673 C269.5726077141708 118.47765789639779, 254.36080340067514 121.56474418975392, 236.9278926550268 124.44019608540444 C219.49498190937845 127.31564798105495, 197.9393875680669 130.30380001832276, 178.6426084911666 130.5942666475761 C159.34582941426632 130.88473327682942, 139.39239801130194 128.2077197180918, 121.14721819362498 126.18299586092445 C102.90203837594802 124.15827200375712, 84.57219605064363 122.80550541232046, 69.1715295851049 118.44592350457208 C53.77086311956618 114.0863415968237, 39.25499569476197 106.44970063231685, 28.743219400392633 100.02550441443418 C18.231443106023292 93.60130819655151, 10.511353652243525 86.78345183089084, 6.100871818888862 79.9007461972761 C1.6903899855342006 73.01804056366137, 0.2230034081466008 66.10835986954197, 2.280328400264665 58.72927061274576 C4.3376533923827285 51.35018135594954, 10.324872470799717 42.17842947923914, 18.444821771597248 35.62621065649879 C26.564771072394777 29.073991833758445, 37.32401940469639 24.454319359739323, 51.000024205049854 19.41595767630367 C64.67602900540332 14.377595992868017, 82.92433709642233 8.361685660210865, 100.50085057371804 5.396040555884866 C118.07736405101375 2.430395451558867, 146.65722694773748 2.214402544938411, 156.45910506882413 1.6220870503476732 C166.26098318991077 1.0297715557569354, 158.884070890145 1.2089306892543696, 159.31211930023798 1.8421475883404383" stroke="#000000" stroke-width="1" fill="none"></path></g><g transform="translate(566.268669062997 55.504014396365704) rotate(0 113.63406917015061 25.59325882210598)"><text x="113.63406917015058" y="36.18651764421197" font-family="Virgil, Segoe UI Emoji" font-size="40.949214115369564px" fill="#000000" text-anchor="middle" style="white-space: pre;" direction="ltr">should have</text></g><g transform="translate(874.3915105476977 10) rotate(0 219.66614068079764 64.68296272618191)"><path d="M221.00999968139112 0.2538341450550615 C288.62575592511956 22.30634991538243, 357.0074980014312 42.707301138204095, 437.869339058501 63.97011543347046 M220.25155779261988 -0.25613579012756127 C299.5770463470408 23.63210720188398, 377.8619171806341 46.96205440053713, 438.76228698778345 64.714721733843 M439.4863460257882 66.09429783179047 C374.0476268463462 84.4539474168789, 313.24815401658276 100.59677322218535, 220.08349337086372 129.83966242736082 M438.6479453202373 64.46830381290223 C356.13180177790707 90.77706802623332, 272.8915499307911 115.57240072010464, 219.22757823401506 129.9944704998817 M219.78835293719774 128.14102200760908 C134.79443641041343 105.02999445093418, 46.60539997673971 77.84310396893834, -0.7251538911606279 65.14918013853598 M219.48217677644047 130.0921690696524 C162.12748396129555 112.6008501193349, 104.51931725135077 94.78048704803012, -0.7761084094827589 65.68199655191971 M0.6266712400814018 64.84567823222831 C77.45816280740846 42.832152673642646, 158.96380949540725 19.491782991731288, 218.5318178279786 1.3768747408035336 M0.7163257968003104 64.5387841102977 C54.00066603630335 48.751247494650876, 109.41433057840986 31.749207806489398, 219.21136822183092 0.8489199015676585" stroke="#000000" stroke-width="1" fill="none"></path></g><g transform="translate(991.6846159400717 49.08970390407583) rotate(0 102.37303528842392 25.59325882210598)"><text x="102.37303528842394" y="36.18651764421197" font-family="Virgil, Segoe UI Emoji" font-size="40.949214115369564px" fill="#000000" text-anchor="middle" style="white-space: pre;" direction="ltr">could have</text></g><g><g transform="translate(159.45479585145893 190.3295110887097) rotate(0 579.3877689906016 -2.4736843568131732)"><path d="M0.17874910421669488 0.3980096440762282 C193.66964377973514 -0.2820053861770909, 966.6548478694774 -2.522977355735442, 1159.962084326612 -3.3688519898705973 M-1.186546345409006 -0.43863923812285077 C192.26067317268163 -1.5621784651201351, 965.7431562656864 -4.768383949583463, 1159.1838916948793 -5.345378357702573" stroke="#000000" stroke-width="1" fill="none"></path></g></g><g transform="translate(10 1014.0569346438175) rotate(0 185.09765625 81.49739583333337)"><path d="M247.67169334174554 5.364004290068777 C266.544598475455 7.089358303865452, 285.4266908885656 12.963879260340764, 301.16597591041125 18.46310986977118 C316.9052609322569 23.962340479201597, 331.41484384707564 31.001413489605454, 342.10740347281944 38.35938794665127 C352.79996309856324 45.71736240369708, 360.80143228199927 54.130017926442115, 365.32133366487403 62.61095661204607 C369.8412350477488 71.09189529765003, 370.97529244194914 80.7096455533522, 369.226811770068 89.245020060275 C367.4783310981869 97.78039456719779, 362.78544767794455 105.77557367841244, 354.83044963358753 113.82320365358282 C346.8754515892305 121.8708336287532, 335.38692538474334 130.79186485295676, 321.4968235039259 137.5307999112973 C307.60672162310846 144.26973496963782, 289.1886208207526 150.07316624899994, 271.4898383486829 154.256814003626 C253.7910558766132 158.44046175825207, 234.9144120304655 161.50848659227503, 215.30412867150767 162.63268643905366 C195.69384531254983 163.75688628583228, 173.47905692231592 162.5572940146127, 153.8281381949359 161.0020130842978 C134.17721946755586 159.4467321539829, 114.73364891944118 157.49483739051436, 97.3986163072275 153.30100085716424 C80.06358369501382 149.10716432381412, 63.48276417140654 142.22596937030374, 49.81794252165383 135.83899388419698 C36.15312087190113 129.45201839809022, 23.515393509213105 122.9973026463948, 15.40968640871128 114.97914794052369 C7.303979308209454 106.96099323465258, 2.7236037165092455 96.6817941109025, 1.1836999186428727 87.73006564897031 C-0.35620387922350005 78.77833718703812, 1.3734412612697184 69.65331613078031, 6.170263621513044 61.26877716893051 C10.96708598175637 52.884238207080706, 19.242891319551802 44.61035101230166, 29.964634080102826 37.42283187787149 C40.68637684065385 30.235312743441316, 54.986828608242284 23.71341428956455, 70.50072018481917 18.14366236234948 C86.01461176139605 12.573910435134412, 104.39782689358665 7.069586740919529, 123.04798353956416 4.004320314581079 C141.69814018554166 0.9390538882426291, 162.54038785743663 -0.40394590047324164, 182.40166006068415 -0.24793619568121983 C202.26293226393167 -0.09192649088919799, 230.2509869714666 4.08047143359214, 242.21561675904928 4.94037854333321 C254.18024654663196 5.800285653074281, 251.36202806515365 4.43588972207867, 254.1894387861803 4.911506462765203 C257.0168495072069 5.387123203451736, 260.4802822099507 6.302226497214558, 259.18008108520917 7.794078987452409 M168.66170381780137 -1.116857856989924 C187.4906906932886 -3.068242661052807, 210.6140637729952 -0.3873010817773448, 230.08842188836107 1.9949113568896735 C249.56278000372694 4.377123795556692, 268.8531462121252 8.400800618651772, 285.50785250999667 13.176416775012186 C302.16255880786815 17.9520329313726, 317.6930946433985 23.76531109075288, 330.01665967558995 30.648608295052156 C342.3402247077814 37.53190549935143, 352.9401161059149 46.192271641991596, 359.44924270314533 54.476200000807836 C365.95836930037575 62.760128359624076, 368.5472183492704 71.6072903870232, 369.0714192589724 80.35217844794958 C369.59562016867443 89.09706650887597, 368.6942498678742 98.70702609376079, 362.5944481613575 106.94552836636612 C356.4946464548408 115.18403063897145, 344.65987959572584 122.83518037081059, 332.47260901987227 129.78319208358153 C320.2853384440187 136.73120379635247, 305.96400380453696 143.37097568374807, 289.47082470623616 148.63359864299173 C272.97764560793536 153.89622160223539, 252.7837482032253 159.096754386081, 233.51353443006747 161.35892983904347 C214.24332065690965 163.62110529200595, 193.67057311311714 163.01357856712758, 173.84954206728915 162.20665136076659 C154.02851102146116 161.3997241544056, 133.11737220772773 159.57930074368238, 114.58734815509958 156.51736660087755 C96.05732410247144 153.45543245807272, 77.54058189917934 149.35191027250525, 62.669397751520336 143.83504650393766 C47.79821360386133 138.31818273537007, 35.2514553195029 131.03114378987723, 25.360243269145514 123.41618398947196 C15.469031218788126 115.80122418906669, 7.4918197162293865 106.90228521288583, 3.322125449376017 98.14528770150599 C-0.8475688174773524 89.38829019012616, -2.397296272838981 79.69659604695795, 0.34207766802529704 70.87419892119293 C3.081451608889575 62.051801795427906, 10.37993668878878 52.89177948720278, 19.758369094561687 45.21090494691584 C29.13680150033459 37.530030406628896, 42.15072151569474 30.982328528628436, 56.61267210266274 24.788951679471282 C71.07462268963074 18.595574830314128, 88.5814267015719 12.252845950308675, 106.53007261636971 8.050643851972907 C124.47871853116752 3.8484417536371396, 154.03231175984365 0.8361159735161696, 164.30454759144962 -0.4242609105433246 C174.5767834230556 -1.6846377946028188, 167.30447123984217 -0.033009990728629646, 168.1634876060055 0.4883825476159416 C169.02250397216883 1.0097750859605128, 169.04009419785305 1.2710256148670567, 169.4586457884296 2.7040943195241027" stroke="#000000" stroke-width="1" fill="none"></path></g><g transform="translate(146.95312499999966 1282.9241221438174) rotate(0 165.76822916666669 93.97135416666674)"><path d="M169.88778853734777 0.12722933184376473 C187.43931169899128 -0.9115652284786837, 208.17253476030524 2.890088269686295, 225.4489670131226 6.657823294516149 C242.72539926593996 10.425558319346003, 259.72671818435236 16.207359346119485, 273.54638205425186 22.733639480822887 C287.36604592415136 29.25991961552629, 299.150871695924 36.84342478533012, 308.36695023251946 45.815504102736554 C317.5830287691149 54.78758342014299, 325.2539375993233 66.05451784554873, 328.8428532738243 76.5661153852615 C332.43176894832527 87.07771292497426, 332.6247909638523 98.4770734034929, 329.90044427952546 108.88508934101316 C327.1760975951986 119.29310527853342, 321.0777439281618 129.88359014118626, 312.4967731678632 139.01421101038306 C303.91580240756457 148.14483187957987, 292.195004846351 156.64647708016932, 278.4146197177338 163.66881455619392 C264.63423458911655 170.69115203221853, 246.95531064909773 177.19626031070908, 229.81446239615983 181.14823586653068 C212.67361414322193 185.1002114223523, 193.79947027250608 186.7611689271176, 175.56953020010639 187.38066789112355 C157.33959012770669 188.0001668551295, 138.17642500827594 187.6810440302581, 120.43482196176164 184.86522965056633 C102.69321891524733 182.04941527087456, 83.96799348374692 176.5990455247105, 69.11991192102053 170.48578161297297 C54.27183035829414 164.37251770123544, 41.870970454878616 156.51523404728968, 31.346332585403275 148.1856461801411 C20.821694715927933 139.85605831299253, 11.153445300802662 130.3685237937499, 5.972084704168481 120.50825441008158 C0.7907241075342979 110.64798502641327, -0.8024565738751097 99.49593993007362, 0.2581690055981767 89.0240298781312 C1.318794585071463 78.55211982618879, 5.227136772427779 67.33210646298392, 12.3358381810082 57.676794098427095 C19.44453958958862 48.02148173387027, 30.264642425250827 38.72250789841304, 42.9103774570807 31.092155690790236 C55.55611248891057 23.461803483167426, 72.00156975735494 16.89676658853659, 88.21024837198742 11.894680852690243 C104.4189269866199 6.8925951168438955, 122.0458961404785 2.8305538188371058, 140.16244914487558 1.0796412757121487 C158.27900214927266 -0.6712712674128081, 183.51999416139307 0.4404044769970076, 196.90956639836983 1.3892055939405026 C210.2991386353466 2.3380067108839975, 221.0314069191234 5.216601064721516, 220.4998825667361 6.772447977373119 M196.04331860049814 2.764604115625474 C213.761225114029 2.9328233574565155, 233.1227675133662 6.878816625870243, 249.36657001283817 11.87062997178053 C265.6103725123101 16.86244331769082, 281.58207915209886 24.768537272848945, 293.5061335973299 32.7154841910872 C305.4301880425609 40.66243110932545, 314.38301358607123 49.67222798872073, 320.9108966842243 59.55231148121006 C327.4387797823774 69.43239497369939, 332.49564565152286 81.16294002164513, 332.67343218624853 91.99598514602319 C332.8512187209742 102.82903027040125, 327.7871241753864 114.43552963189973, 321.97761589257834 124.5505822274784 C316.1681076097703 134.66563482305708, 308.8187023411657 144.87479311912992, 297.81638248940016 152.68630071949525 C286.8140626376346 160.49780831986058, 271.3976195472576 166.1423116970814, 255.96369678198494 171.4196278296704 C240.5297740167123 176.69694396225938, 222.8868275262503 181.73468304092188, 205.21284589776434 184.35019751502915 C187.53886426927838 186.96571198913642, 168.3031689402673 187.96907939683265, 149.9198070110691 187.1127146743141 C131.5364450818709 186.25634995179556, 111.75874155234564 183.86035982420736, 94.91267432257516 179.2120091799178 C78.06660709280467 174.56365853562824, 61.8180641946723 166.36633131022347, 48.8434036324462 159.22261080857663 C35.86874307022009 152.0788903069298, 24.853262719691394 145.49278980244586, 17.064710949218522 136.34968617003685 C9.276159178745651 127.20658253762784, 4.479719921299386 114.76596290677661, 2.1120930096089694 104.3639890141226 C-0.255533902081448 93.96201512146858, -1.3545426998160464 84.09509751546318, 2.858949479076017 73.93784281411277 C7.07244165796808 63.780588112762366, 17.4299849640106 52.56046350480382, 27.393046082961348 43.42046080602016 C37.356107201912096 34.2804581072365, 48.58446820182495 25.670550195463914, 62.63731619278049 19.09782662141079 C76.69016418373603 12.525103047357664, 94.31753951247532 7.135745526440317, 111.7101340286946 3.984119361701403 C129.10272854491387 0.8324931969624885, 152.66148300215988 0.3934341230165449, 166.99288329009616 0.18806963297730306 C181.32428357803244 -0.017294857061938756, 192.75233134553235 1.9863792836032252, 197.69853575631228 2.751932421465952 C202.6447401670922 3.5174855593286787, 197.15690793778953 3.5323338755726112, 196.67010975477575 4.781388460153664" stroke="#000000" stroke-width="1" fill="none"></path></g><g transform="translate(676.2499999999997 1251.283497143817) rotate(0 234.79817708333337 141.57552083333337)"><path d="M234.54772651117213 -0.28474521750125226 C319.6354846155132 47.094365925446894, 399.94619871517176 99.78536074810812, 468.9119614418551 143.111577331592 M235.52913106269855 -0.22445234216389945 C292.19005281032537 35.2897534378078, 348.42564320056323 69.7066240119691, 469.6669690288022 141.33598656949903 M468.6618599625057 141.76466210098036 C381.87633408831823 192.78836693809595, 294.4765338034419 245.08803224518348, 235.46265269229096 282.1561517349769 M469.43439530468254 142.12300155755284 C403.99324952453355 183.26307458954358, 338.97934985793125 222.09279759411868, 234.75044796729767 283.42520870669364 M233.82687046245965 283.253612782802 C145.27879529788638 228.80658394557506, 52.41406241520255 172.87595003115194, -0.32344071510553657 141.2451676258015 M235.6579313125266 283.8795077647812 C182.95531636677256 250.4102697428836, 129.94230798100665 218.04766119982452, -0.14003713218541514 141.69289921933054 M0.2391794567181162 142.21389457004724 C90.72149955351252 87.27888904322921, 184.18117890466897 30.74421771039319, 233.56494540438854 -0.21442074030547145 M-0.18527681541988858 142.0905630712544 C76.44849639262091 94.12367016249378, 153.33757462202456 48.38178011903206, 234.29899258997983 -0.0745081455353981" stroke="#000000" stroke-width="1" fill="none"></path></g><g transform="translate(964.6354166666664 955.6064138104836) rotate(0 231.4648437500001 150.13020833333337)"><path d="M231.99386155077545 0.690944012346971 C300.56128700601164 44.960026872317904, 371.1549114596229 89.243752094125, 462.26697530118633 150.59730856465583 M232.0786269178665 -0.6316367533261491 C297.05055939366406 41.34767385748068, 361.6794018771532 84.35303927106791, 462.3962162134675 150.63795301875618 M462.2192901136007 152.40287363256036 C387.522051846254 201.37018731144713, 312.67683661896325 250.84372965391543, 233.5140351515286 300.05669633091577 M463.3024059262906 151.22401249325478 C398.2947493774879 191.57441303914828, 334.3710827869326 231.72333323691058, 231.292017639951 300.4362959067016 M230.50018593601538 300.9893622146354 C153.7139276934127 248.9190364446663, 73.12340453920842 198.79620285590977, -1.347833041519186 151.9537953605775 M231.55492476503667 299.74134695891007 C149.90796114134298 248.53451125983543, 67.50403661103934 195.4362406583784, 0.291591166565808 151.45144487888976 M-0.5242361234634462 149.90297175553536 C73.7388518180912 101.28863489317017, 147.88060068487044 53.414390130290634, 232.78380893522058 0.7508391785980408 M-0.5970727956212579 150.9781331516627 C61.44167368451963 110.18880237734028, 122.7969428199166 69.71568517608016, 232.37834142902585 0.2819933714983253" stroke="#000000" stroke-width="1" fill="none"></path></g><g transform="translate(515.3255208333331 788.1715179771508) rotate(0 151.56901041666652 68.15755208333337)"><path d="M0.18231997176699968 -0.06479746016218531 C98.61964064312193 2.6929223081322107, 196.87686595976595 0.6034705793087014, 302.79607492710284 0.58589510965868 M-0.17035028469657865 -0.2288941822949534 C108.62037870423957 -2.5015639594842405, 216.91961327934058 -1.6609098962869502, 302.96194030620063 -0.16927899146187608 M302.7002205581712 -1.057082338258624 C304.0451311718014 51.96873865072487, 301.4460382710484 101.76807534100232, 301.8947021098184 136.077001389737 M303.84976515018667 0.6099188392981887 C303.6230440702186 30.26504023032008, 303.67628076336246 61.00280989862468, 303.1517786964151 136.42091299748677 M301.80875322889926 136.9350837289282 C228.12136424552816 133.8955347146635, 152.41976767394283 136.06751160318538, 0.16728001378122878 135.40778746285798 M302.8749259419903 136.80211584673575 C205.1927351272894 137.44061593328897, 108.06764093364166 137.10776106082753, 0.6828824907038353 135.93066461898985 M-0.15399407036602497 134.86733352827537 C-2.3494526241482774 101.36155751668053, -0.5453587268055957 69.33010287044215, 1.2383291255682707 -0.614779694005847 M0.5268352711573243 137.1804782018687 C1.5225660316669145 95.56886385171316, 0.6244229488097826 54.61820588430906, -0.30068113561719656 -0.17909737769514322" stroke="#000000" stroke-width="1" fill="none"></path></g><g transform="translate(591.9518229166664 832.3577158938173) rotate(0 79.5 22.5)"><text x="79.5" y="32" font-family="Virgil, Segoe UI Emoji" font-size="36px" fill="#000000" text-anchor="middle" style="white-space: pre;" direction="ltr">set word</text></g><g><g transform="translate(664.7591004566464 631.747038810484) rotate(0 0.5103844215698814 73.3077521829369)"><path d="M-0.5987487595528364 0.9986276250332595 C-0.26605403728857097 24.935832917152165, 1.2314185988121 120.75851762770772, 1.6195176026925764 144.7158008159448 M1.2877694123424592 0.4773031828366219 C1.5613824830383118 25.11410561610219, 1.0456690345108774 121.89129924339339, 1.067368328809025 146.13820118303713" stroke="#000000" stroke-width="1" fill="none"></path></g><g transform="translate(664.7591004566464 631.747038810484) rotate(0 0.5103844215698814 73.3077521829369)"><path d="M-7.461356092652551 119.17975912445883 C-6.496006731345858 126.99346635665867, -3.7138023611248068 132.62839801734765, 0.1411718300126812 145.7070077847254 M-9.766262202931813 117.05690983419964 C-5.602704924811828 128.47663290240334, -0.4506070925730761 140.80868033209453, 0.1538917489864251 145.71021656631794" stroke="#000000" stroke-width="1" fill="none"></path></g><g transform="translate(664.7591004566464 631.747038810484) rotate(0 0.5103844215698814 73.3077521829369)"><path d="M13.059793731540704 119.22887407994625 C8.512459806585813 126.92699664914144, 5.782428069552843 132.54873542184103, 0.1411718300126812 145.7070077847254 M10.754887621261442 117.10602478968707 C6.85017934669326 128.33175107583804, 3.9339047817944497 140.64448780634635, 0.1538917489864251 145.71021656631794" stroke="#000000" stroke-width="1" fill="none"></path></g></g><g><g transform="translate(617.3593749999999 939.520476310484) rotate(0 -128.35579769822465 59.03558104419767)"><path d="M0.0651154238730669 -0.8133742231875658 C-42.57634128477013 18.91256855672431, -214.1419767526704 98.05380032538534, -256.77671082032236 117.88834639204038 M-1.3598377079330386 1.3740003642998637 C-43.536991935759396 21.25499465394971, -211.97469070844159 99.25844129485175, -254.47799821461876 118.88453631158289" stroke="#000000" stroke-width="1" fill="none"></path></g><g transform="translate(617.3593749999999 939.520476310484) rotate(0 -128.35579769822465 59.03558104419767)"><path d="M-234.5570347343514 96.42302743616844 C-239.73961935764083 102.86631187540256, -243.96799864668102 106.04782024217575, -255.06811106282612 117.54724049437162 M-233.94631801423972 98.32982394649977 C-239.59616267664154 102.86225480483836, -244.1818305486425 108.89610709523137, -254.39051217942824 117.92294099330273" stroke="#000000" stroke-width="1" fill="none"></path></g><g transform="translate(617.3593749999999 939.520476310484) rotate(0 -128.35579769822465 59.03558104419767)"><path d="M-225.940090597701 115.04742745688552 C-232.96887446851935 117.34830894586332, -239.11598111947941 116.38273856263064, -255.06811106282612 117.54724049437162 M-225.32937387758932 116.95422396721685 C-233.37963699503754 116.52660465668923, -240.2891255478263 117.53782186333774, -254.39051217942824 117.92294099330273" stroke="#000000" stroke-width="1" fill="none"></path></g></g><g><g transform="translate(630.1718749999999 947.0725596438173) rotate(0 -109.21108740158388 169.64010301729053)"><path d="M0.546645150706172 -0.8919302623718977 C-36.003834273293634 55.68159245505102, -182.66915573067973 282.21271741907634, -218.96881995387386 339.0867982267092 M-0.6255048745125533 1.2542024045437574 C-36.820233847424404 57.98774958848126, -180.51021417073915 284.01075731064714, -216.65885526828478 340.17213629695283" stroke="#000000" stroke-width="1" fill="none"></path></g><g transform="translate(630.1718749999999 947.0725596438173) rotate(0 -109.21108740158388 169.64010301729053)"><path d="M-211.60950867484888 309.61659877788594 C-213.78732802773186 322.10773310229274, -213.82044983204588 331.9151194234738, -215.87955116808425 341.9603570769231 M-210.01127998649707 311.7136142081054 C-211.99525889332935 317.6753719313091, -213.35319495941178 326.0100169406096, -217.16067174125473 340.9891695645328" stroke="#000000" stroke-width="1" fill="none"></path></g><g transform="translate(630.1718749999999 947.0725596438173) rotate(0 -109.21108740158388 169.64010301729053)"><path d="M-194.31819589506944 320.66786588793605 C-202.13213312450816 329.6147427977192, -207.8340051782558 335.79910326860664, -215.87955116808425 341.9603570769231 M-192.71996720671763 322.7648813181555 C-199.29185549933655 325.8702143719894, -205.15008910220703 331.3286179537504, -217.16067174125473 340.9891695645328" stroke="#000000" stroke-width="1" fill="none"></path></g></g><g><g transform="translate(637.8020833333331 957.6715179771505) rotate(0 87.3260739950091 172.5055734992277)"><path d="M1.124820874258876 1.0284213501960038 C29.759129581972957 58.25663822214639, 143.69337286762894 286.16462734395446, 172.24730781130492 343.27088033345854 M0.25621310390532015 0.5227386137098073 C29.20998525060713 57.91061886246836, 145.2911380354315 287.0970423419195, 174.3959348861128 344.48840838474547" stroke="#000000" stroke-width="1" fill="none"></path></g><g transform="translate(637.8020833333331 957.6715179771505) rotate(0 87.3260739950091 172.5055734992277)"><path d="M154.21489993217108 322.19138892374167 C158.8424932167668 329.2284358705585, 166.87492102892904 339.28677362577605, 172.59460361748933 344.4267406611643 M152.83962738527623 324.4102777625171 C159.24641956816032 329.9918909772579, 164.34945516248015 334.88047952268045, 173.39848686736076 344.67509520509606" stroke="#000000" stroke-width="1" fill="none"></path></g><g transform="translate(637.8020833333331 957.6715179771505) rotate(0 87.3260739950091 172.5055734992277)"><path d="M172.52009766350324 312.91562812461194 C170.97511293884347 323.2482235675125, 172.84257048099803 336.43052591451686, 172.59460361748933 344.4267406611643 M171.1448251166084 315.1345169633874 C172.77819271021218 323.05205285126647, 173.0877239606053 330.36964546080503, 173.39848686736076 344.67509520509606" stroke="#000000" stroke-width="1" fill="none"></path></g></g><g><g transform="translate(658.4140624999999 948.973601310484) rotate(0 183.56693310129145 49.94583283221351)"><path d="M-0.47767953090369697 1.131363747641444 C60.716132204938255 17.350650686149795, 306.2176397746221 81.55449134322504, 367.61154573348654 97.7220177989453 M1.4723999860323964 0.6797257698141039 C62.47413430271254 17.059912349240236, 305.72424532901283 82.72120733664062, 366.6947180299398 99.21193989461288" stroke="#000000" stroke-width="1" fill="none"></path></g><g transform="translate(658.4140624999999 948.973601310484) rotate(0 183.56693310129145 49.94583283221351)"><path d="M338.6892111755771 101.86473878995615 C346.72910594485666 101.57915258760364, 357.50489807074143 100.3101523780228, 365.14253274969127 97.67627701817081 M337.33255938234305 100.92602758911538 C345.13462721444665 100.16364857024936, 354.14947403475475 99.43431630150016, 365.83534425835427 98.38061168977991" stroke="#000000" stroke-width="1" fill="none"></path></g><g transform="translate(658.4140624999999 948.973601310484) rotate(0 183.56693310129145 49.94583283221351)"><path d="M344.04091974930003 82.05365053797513 C350.34228006107736 88.43081632504155, 359.3124613191381 93.84587145188819, 365.14253274969127 97.67627701817081 M342.684267956066 81.11493933713436 C348.7441191598892 86.34206938328913, 356.1488265176276 91.57319152859161, 365.83534425835427 98.38061168977991" stroke="#000000" stroke-width="1" fill="none"></path></g></g></svg>